<svg xmlns="http://www.w3.org/2000/svg" version="1.1" xmlns:xlink="http://www.w3.org/1999/xlink" xmlns:svgjs="http://svgjs.dev/svgjs" width="2000" height="656" viewBox="0 0 2000 656"><g transform="matrix(1,0,0,1,-1.2121212121212466,0.1516279207774005)"><svg viewBox="0 0 396 130" data-background-color="#ffffff" preserveAspectRatio="xMidYMid meet" height="656" width="2000" xmlns="http://www.w3.org/2000/svg" xmlns:xlink="http://www.w3.org/1999/xlink"><g id="tight-bounds" transform="matrix(1,0,0,1,0.2400000000000091,-0.03004821600771379)"><svg viewBox="0 0 395.52 130.06009643201543" height="130.06009643201543" width="395.52"><g><svg viewBox="0 0 395.52 130.06009643201543" height="130.06009643201543" width="395.52"><g><svg viewBox="0 0 395.52 130.06009643201543" height="130.06009643201543" width="395.52"><g id="textblocktransform"><svg viewBox="0 0 395.52 130.06009643201543" height="130.06009643201543" width="395.52" id="textblock"><g><svg viewBox="0 0 395.52 130.06009643201543" height="130.06009643201543" width="395.52"><g transform="matrix(1,0,0,1,0,0)"><svg width="395.52" viewBox="2.55 -38.65 155.54 51.15" height="130.06009643201543" data-palette-color="#d1d3da"><path d="M16.25-0.55L16.25-0.55Q18.75-0.55 20.68-1.9 22.6-3.25 22.6-5.98 22.6-8.7 20.53-10.15 18.45-11.6 14.63-12.68 10.8-13.75 9.08-14.55 7.35-15.35 5.8-16.65L5.8-16.65Q2.7-19.25 2.7-24.7L2.7-24.7Q2.7-29.15 5.88-32.35 9.05-35.55 14.55-35.55L14.55-35.55Q17.2-35.55 20.08-34.77 22.95-34 23.65-34 24.35-34 24.9-35L24.9-35 25.45-35 25.8-24.9 25-24.9Q22.6-29.25 19.98-31.88 17.35-34.5 14.28-34.5 11.2-34.5 9.5-33.08 7.8-31.65 7.8-29.28 7.8-26.9 9.83-25.63 11.85-24.35 14.8-23.55 17.75-22.75 18.68-22.45 19.6-22.15 20.98-21.63 22.35-21.1 23.23-20.53 24.1-19.95 25.08-19.07 26.05-18.2 26.6-17.15L26.6-17.15Q27.95-14.75 27.95-11.45L27.95-11.45Q27.95-6.05 24.58-2.78 21.2 0.5 15.7 0.5L15.7 0.5Q12.85 0.5 9.18-0.25 5.5-1 5.1-1L5.1-1Q4.4-1 3.75 0.5L3.75 0.5 3.05 0.5 2.55-11.4 3.4-11.4Q5.6-7.05 9.03-3.8 12.45-0.55 16.25-0.55ZM33-7.15L33-7.15 33-22.9 30.25-22.9 30.25-23.8 33-23.8 33-30.25 42.3-32.55 42.3-23.8 48.8-23.8 48.8-22.9 42.3-22.9 42.3-6.05Q42.3-3.7 42.77-2.6 43.25-1.5 44.75-1.5 46.25-1.5 47.37-3 48.5-4.5 48.85-7.1L48.85-7.1 49.7-7Q49.3-3.55 47.5-1.53 45.7 0.5 41.55 0.5 37.4 0.5 35.2-1.15 33-2.8 33-7.15ZM62.2-11.75L62.2-11.75 63.65-11.75 63.65-15.6Q63.65-20.35 63.12-21.98 62.6-23.6 61.1-23.6L61.1-23.6Q60.2-23.6 59.47-23.13 58.75-22.65 58.75-21.83 58.75-21 59.05-20.15L59.05-20.15 60.3-20.15Q60.7-19.1 60.7-17.63 60.7-16.15 59.45-15.08 58.2-14 56.3-14L56.3-14Q52-14 52-18.15L52-18.15Q52-24.3 62.45-24.3L62.45-24.3Q68.4-24.3 70.67-22.28 72.95-20.25 72.95-14.85L72.95-14.85 72.95-4.7Q72.95-2.1 74.4-2.1L74.4-2.1Q76.1-2.1 76.4-7.25L76.4-7.25 77.15-7.2Q76.95-2.8 75.5-1.15 74.05 0.5 70.75 0.5L70.75 0.5Q64.75 0.5 63.85-3.2L63.85-3.2Q63.2-1.3 61.9-0.4 60.6 0.5 58.1 0.5L58.1 0.5Q50.7 0.5 50.7-5.55L50.7-5.55Q50.7-9.1 53.52-10.43 56.35-11.75 62.2-11.75ZM60.2-5.6Q60.2-3 60.47-2.25 60.75-1.5 61.52-1.5 62.3-1.5 62.97-2.78 63.65-4.05 63.65-6.3L63.65-6.3 63.65-10.95 63.3-10.95Q60.2-10.95 60.2-6.4L60.2-6.4 60.2-5.6ZM79.39-7.15L79.39-7.15 79.39-22.9 76.64-22.9 76.64-23.8 79.39-23.8 79.39-30.25 88.69-32.55 88.69-23.8 95.19-23.8 95.19-22.9 88.69-22.9 88.69-6.05Q88.69-3.7 89.17-2.6 89.64-1.5 91.14-1.5 92.64-1.5 93.77-3 94.89-4.5 95.24-7.1L95.24-7.1 96.09-7Q95.69-3.55 93.89-1.53 92.09 0.5 87.94 0.5 83.79 0.5 81.59-1.15 79.39-2.8 79.39-7.15ZM103.94-27.25Q101.29-27.25 100.17-28.6 99.04-29.95 99.04-31.95 99.04-33.95 100.27-35.25 101.49-36.55 103.99-36.55 106.49-36.55 107.79-35.38 109.09-34.2 109.09-32.02 109.09-29.85 107.84-28.55 106.59-27.25 103.94-27.25ZM96.39-22.9L96.39-23.8 108.64-23.8 108.64-0.9 111.44-0.9 111.44 0 96.59 0 96.59-0.9 99.34-0.9 99.34-22.9 96.39-22.9ZM127.59-37.8L127.59-37.8Q125.69-37.8 125.09-36.38 124.49-34.95 124.49-31.8L124.49-31.8 124.49-23.8 131.09-23.8 131.09-22.9 124.49-22.9 124.49-0.9 130.59-0.9 130.59 0 112.44 0 112.44-0.9 115.19-0.9 115.19-22.9 112.29-22.9 112.29-23.8 115.19-23.8 115.19-24Q115.19-31.2 117.94-34.93 120.69-38.65 127.14-38.65L127.14-38.65Q131.39-38.65 133.24-36.98 135.09-35.3 135.09-33.1 135.09-30.9 133.94-29.8 132.79-28.7 130.89-28.7 128.99-28.7 127.96-29.68 126.94-30.65 126.94-31.93 126.94-33.2 127.24-34.4L127.24-34.4 129.14-34.4Q130.14-37.8 127.59-37.8ZM133.39-22.9L131.34-22.9 131.34-23.8 145.84-23.8 145.84-22.9 143.14-22.9 148.59-6.3 154.39-22.9 151.04-22.9 151.04-23.8 158.09-23.8 158.09-22.9 155.59-22.9 146.24 4.05Q144.59 8.75 142.54 10.63 140.49 12.5 137.54 12.5 134.59 12.5 132.89 11.15 131.19 9.8 131.19 7.7 131.19 5.6 132.29 4.5 133.39 3.4 135.19 3.4L135.19 3.4Q139.34 3.4 139.34 6.85L139.34 6.85Q139.34 7.6 139.04 8.65L139.04 8.65 137.29 8.65Q136.89 9.8 137.19 10.55 137.49 11.3 138.54 11.3L138.54 11.3Q140.59 11.3 142.19 9.28 143.79 7.25 145.24 3.1L145.24 3.1 146.34 0 141.94 0 133.39-22.9Z" opacity="1" transform="matrix(1,0,0,1,0,0)" fill="#000000" class="wordmark-text-0" data-fill-palette-color="primary" id="text-0"></path></svg></g></svg></g></svg></g></svg></g><g></g></svg></g><defs></defs></svg><rect width="395.52" height="130.06009643201543" fill="none" stroke="none" visibility="hidden"></rect></g></svg></g></svg>